<svg xmlns="http://www.w3.org/2000/svg" viewBox="0 0 1200 800" role="img" aria-label="LedgerLock personal finance security auditor">
  <defs>
    <linearGradient id="llBg" x1="0" y1="0" x2="1" y2="1">
      <stop offset="0" stop-color="#123a5e"/>
      <stop offset="1" stop-color="#05472a"/>
    </linearGradient>
    <linearGradient id="llMetal" x1="0" y1="0" x2="0" y2="1">
      <stop offset="0" stop-color="#faf9f6"/>
      <stop offset="1" stop-color="#cfd9e2"/>
    </linearGradient>
    <filter id="llSoft" x="-20%" y="-20%" width="140%" height="140%">
      <feDropShadow dx="0" dy="18" stdDeviation="24" flood-color="#000000" flood-opacity="0.3"/>
    </filter>
  </defs>
  <rect width="1200" height="800" fill="url(#llBg)"/>
  <circle cx="980" cy="640" r="300" fill="#ffffff" opacity="0.05"/>
  <circle cx="200" cy="160" r="220" fill="#ffffff" opacity="0.05"/>
  <g opacity="0.9">
    <rect x="360" y="470" width="60" height="120" rx="10" fill="#7fb89a"/>
    <rect x="450" y="420" width="60" height="170" rx="10" fill="#a9d2bd"/>
    <rect x="540" y="360" width="60" height="230" rx="10" fill="#cfeede"/>
  </g>
  <g filter="url(#llSoft)">
    <rect x="640" y="380" width="220" height="180" rx="26" fill="url(#llMetal)"/>
    <path d="M690 380 v-46 a60 60 0 0 1 120 0 v46" fill="none" stroke="url(#llMetal)" stroke-width="26"/>
    <circle cx="750" cy="460" r="26" fill="#123a5e"/>
    <rect x="740" y="476" width="20" height="48" rx="10" fill="#123a5e"/>
  </g>
  <text x="600" y="250" text-anchor="middle" font-family="Baskerville, Georgia, serif" font-size="150" fill="#cfeede" opacity="0.9">$</text>
</svg>
